<svg width="553" height="392" viewBox="0 0 553 392" fill="none" xmlns="http://www.w3.org/2000/svg">
<path d="M0 379.159L22.172 328.954H29.99L51.823 379.159H43.26L37.168 365.248H13.485L7.353 379.159H0ZM15.834 359.923H34.835L25.362 338.307L15.834 359.923Z" fill="#231815"/>
<path d="M55.6904 378.203V371.147C60.1904 373.007 63.4804 374.122 65.5544 374.506C67.6264 374.897 69.5504 375.083 71.3214 375.083C74.5304 375.083 77.0684 374.3 78.9244 372.729C80.7824 371.155 81.7144 369.274 81.7144 367.083C81.7144 365.427 81.2264 363.901 80.2554 362.5C79.2584 361.126 76.8024 359.438 72.8894 357.451L69.0234 355.441C63.8704 352.823 60.4084 350.424 58.6424 348.253C56.8744 346.086 55.9904 343.676 55.9904 341.03C55.9904 338.651 56.6904 336.424 58.0944 334.347C59.5004 332.269 61.3804 330.634 63.7424 329.461C66.1064 328.284 69.0804 327.696 72.6704 327.696C76.9884 327.696 81.5494 328.342 86.3534 329.626V336.14C82.1764 334.674 79.3084 333.785 77.7524 333.483C76.1954 333.178 74.6454 333.023 73.1044 333.023C69.8614 333.023 67.4644 333.782 65.9094 335.296C64.3484 336.812 63.5734 338.364 63.5734 339.945C63.5734 341.029 63.9394 342.133 64.6774 343.25C65.4144 344.371 66.4034 345.326 67.6514 346.135C68.8964 346.936 70.6024 347.888 72.7734 348.998L76.7934 351.034C81.9934 353.684 85.4654 356.098 87.2084 358.291C88.9524 360.513 89.8264 363.048 89.8264 365.923C89.8264 369.839 88.1644 373.231 84.8434 376.101C81.5204 378.976 76.6294 380.413 70.1634 380.413C68.1684 380.413 66.2344 380.294 64.3664 380.052C62.4954 379.821 59.6024 379.204 55.6904 378.203Z" fill="#231815"/>
<path d="M93.4277 378.203V371.147C97.9277 373.007 101.217 374.122 103.292 374.506C105.363 374.897 107.287 375.083 109.058 375.083C112.273 375.083 114.806 374.3 116.666 372.729C118.524 371.155 119.454 369.274 119.454 367.083C119.454 365.427 118.967 363.901 117.996 362.5C116.998 361.126 114.54 359.438 110.628 357.451L106.765 355.441C101.61 352.823 98.1507 350.424 96.3827 348.253C94.6147 346.086 93.7297 343.676 93.7297 341.03C93.7297 338.651 94.4307 336.424 95.8317 334.347C97.2377 332.269 99.1167 330.634 101.482 329.461C103.844 328.284 106.819 327.696 110.409 327.696C114.732 327.696 119.294 328.342 124.094 329.626V336.14C119.918 334.674 117.049 333.785 115.494 333.483C113.935 333.178 112.387 333.023 110.84 333.023C107.602 333.023 105.201 333.782 103.646 335.296C102.089 336.812 101.313 338.364 101.313 339.945C101.313 341.029 101.681 342.133 102.417 343.25C103.154 344.371 104.146 345.326 105.388 346.135C106.633 346.936 108.342 347.888 110.517 348.998L114.532 351.034C119.733 353.684 123.206 356.098 124.948 358.291C126.691 360.513 127.563 363.048 127.563 365.923C127.563 369.839 125.903 373.231 122.58 376.101C119.257 378.976 114.366 380.413 107.903 380.413C105.907 380.413 103.976 380.294 102.107 380.052C100.235 379.821 97.3417 379.204 93.4277 378.203Z" fill="#231815"/>
<path d="M133.018 379.159V328.954H164.285V334.278H140.937V350.393H160.511V355.647H140.937V373.828H165.906V379.159H133.018V379.159Z" fill="#231815"/>
<path d="M182.713 379.159V334.278H162.909V328.954H210.433V334.278H190.634V379.159H182.713Z" fill="#231815"/>
<path d="M332.399 380.414C327.121 380.414 322.522 379.348 318.613 377.221C314.702 375.097 311.672 371.991 309.522 367.908C307.374 363.834 306.296 359.208 306.296 354.053C306.296 349.087 307.322 344.553 309.37 340.473C311.422 336.388 314.441 333.242 318.439 331.021C322.44 328.804 327.091 327.699 332.398 327.699C337.705 327.699 342.353 328.804 346.354 331.021C350.351 333.242 353.375 336.388 355.419 340.473C357.472 344.553 358.494 349.087 358.494 354.053C358.494 359.011 357.483 363.514 355.46 367.572C353.438 371.634 350.442 374.789 346.484 377.04C342.527 379.283 337.828 380.414 332.399 380.414ZM332.399 375.083C338.029 375.083 342.385 373.197 345.465 369.419C348.544 365.646 350.084 360.501 350.084 353.987C350.084 347.496 348.533 342.382 345.428 338.638C342.323 334.896 337.981 333.023 332.399 333.023C326.816 333.023 322.474 334.896 319.364 338.638C316.261 342.381 314.709 347.495 314.709 353.987C314.709 360.501 316.249 365.645 319.331 369.419C322.408 373.198 326.763 375.083 332.399 375.083Z" fill="#231815"/>
<path d="M354.32 391.223V384.911C357.336 385.798 360.027 386.239 362.392 386.239C364.001 386.239 365.386 385.968 366.538 385.443C367.696 384.907 368.63 384.029 369.35 382.794C370.068 381.564 370.427 379.224 370.427 375.79V328.953H378.347V375.551C378.347 381.318 376.844 385.489 373.837 388.07C370.837 390.653 366.589 391.938 361.109 391.938C359.351 391.938 357.089 391.698 354.32 391.223Z" fill="#008BD5"/>
<path d="M390.001 379.159V328.954H421.266V334.278H397.918V350.393H417.491V355.647H397.918V373.828H422.885V379.159H390.001V379.159Z" fill="#231815"/>
<path d="M453.189 333.521C450.078 333.521 447.165 333.965 444.458 334.853C441.754 335.737 439.403 337.053 437.41 338.812C435.42 340.572 433.851 342.753 432.696 345.352C431.547 347.957 430.972 350.991 430.972 354.458C430.972 357.89 431.504 360.872 432.57 363.402C433.636 365.934 435.15 368.029 437.116 369.686C439.079 371.343 441.441 372.568 444.205 373.368C446.966 374.162 450.045 374.563 453.441 374.563C454.365 374.563 455.345 374.516 456.383 374.433C457.421 374.345 458.464 374.22 459.515 374.059C460.565 373.9 461.592 373.711 462.587 373.497C463.585 373.289 464.476 373.055 465.261 372.806V378.189C463.623 378.764 461.728 379.205 459.569 379.515C457.403 379.83 455.19 379.983 452.917 379.983C448.289 379.983 444.19 379.408 440.615 378.249C437.038 377.089 434.038 375.423 431.617 373.254C429.192 371.086 427.358 368.442 426.113 365.315C424.864 362.189 424.241 358.641 424.241 354.68C424.241 350.793 424.899 347.214 426.216 343.95C427.531 340.688 429.429 337.884 431.91 335.539C434.389 333.205 437.396 331.372 440.928 330.068C444.458 328.761 448.428 328.107 452.838 328.107C453.996 328.107 455.149 328.148 456.286 328.232C457.419 328.321 458.507 328.449 459.547 328.612C460.583 328.773 461.549 328.964 462.438 329.187C463.322 329.415 464.083 329.648 464.722 329.9V335.28C463.035 334.783 461.2 334.362 459.211 334.027C457.217 333.689 455.208 333.521 453.189 333.521Z" fill="#231815"/>
<path d="M489.007 379.159V334.278H469.206V328.954H516.729V334.278H496.926V379.159H489.007Z" fill="#231815"/>
<path d="M518.406 378.203V371.147C522.908 373.007 526.196 374.122 528.27 374.506C530.345 374.897 532.266 375.083 534.04 375.083C537.251 375.083 539.785 374.3 541.643 372.729C543.504 371.155 544.436 369.274 544.436 367.083C544.436 365.427 543.946 363.901 542.977 362.5C541.982 361.126 539.525 359.438 535.61 357.451L531.745 355.441C526.588 352.823 523.132 350.424 521.363 348.253C519.597 346.086 518.712 343.676 518.712 341.03C518.712 338.651 519.412 336.424 520.816 334.347C522.218 332.269 524.097 330.634 526.463 329.461C528.825 328.284 531.8 327.696 535.389 327.696C539.711 327.696 544.274 328.342 549.074 329.626V336.14C544.898 334.674 542.033 333.785 540.474 333.483C538.914 333.178 537.367 333.023 535.822 333.023C532.581 333.023 530.184 333.782 528.63 335.296C527.07 336.812 526.293 338.364 526.293 339.945C526.293 341.029 526.66 342.133 527.397 343.25C528.136 344.371 529.126 345.326 530.367 346.135C531.615 346.936 533.323 347.888 535.495 348.998L539.51 351.034C544.717 353.684 548.186 356.098 549.93 358.291C551.676 360.513 552.545 363.048 552.545 365.923C552.545 369.839 550.884 373.231 547.562 376.101C544.243 378.976 539.348 380.413 532.882 380.413C530.888 380.413 528.954 380.294 527.086 380.052C525.214 379.821 522.322 379.204 518.406 378.203Z" fill="#231815"/>
<path d="M258.916 334.753C257.683 332.785 255.914 331.327 253.614 330.38C251.307 329.428 247.505 328.953 242.207 328.953H227.31V379.158H235.154V370.214V359.207V353.814V344.02V334.277H239.838C243.731 334.277 246.452 334.649 248.002 335.385C249.55 336.113 250.679 337.076 251.377 338.26C252.08 339.451 252.431 340.899 252.431 342.625C252.431 345.787 251.329 348.447 249.129 350.592C246.981 352.689 243.458 353.754 238.591 353.804V359.206C242.92 359.206 246.884 358.504 250.478 357.107C254.08 355.699 256.694 353.715 258.322 351.138C259.952 348.557 260.765 345.549 260.765 342.117C260.764 339.174 260.152 336.719 258.916 334.753Z" fill="#231815"/>
<path d="M289.905 355.647C292.596 354.652 294.719 353.434 296.281 351.991C297.835 350.541 299.037 348.886 299.877 347.03C300.721 345.182 301.141 343.3 301.141 341.404C301.141 338.149 299.948 335.257 297.56 332.737C295.169 330.216 290.848 328.954 284.583 328.954H267.69V379.159H275.532V367.405V357.925V352.601V341.213V334.277H280.51C284.08 334.277 286.677 334.609 288.301 335.265C289.918 335.915 291.116 336.825 291.884 337.99C292.648 339.157 293.032 340.521 293.032 342.082C293.032 344.698 292.008 347.113 289.961 349.305C288.436 350.938 284.989 352.12 281.083 352.594V355.615L282.928 357.924L298.821 379.158H308.551L289.905 355.647Z" fill="#231815"/>
<path d="M253.218 158.324C253.512 159.397 253.843 160.489 254.227 161.603C253.849 160.561 253.518 159.462 253.218 158.324Z" fill="black"/>
<path d="M240.242 150.475C240.665 154.357 241.312 157.988 242.159 161.31C241.082 157.489 240.413 153.851 240.242 150.475Z" fill="black"/>
<path d="M308.647 139.59C307.842 141.1 307.028 142.565 306.188 143.984Z" fill="black"/>
<path d="M242.159 161.309C243.111 164.626 244.38 168.086 245.984 171.653C244.415 168.634 243.156 165.174 242.159 161.309Z" fill="black"/>
<path d="M252.429 154.993C252.663 156.139 252.932 157.257 253.218 158.324C252.908 157.191 252.633 156.075 252.429 154.993Z" fill="black"/>
<path d="M321.341 1.00847C343.129 8.49647 346.748 55.4555 329.443 105.899C324.882 119.234 319.299 131.434 313.168 142.103C311.651 141.229 310.144 140.387 308.648 139.589C312.451 132.479 315.934 124.563 318.856 116.038C331.892 78.0195 329.163 42.6315 312.753 37.0075C296.317 31.3815 272.449 57.6245 259.403 95.6435C255.449 107.15 252.956 118.418 251.842 128.689C249.197 129.9 246.932 131.547 245.104 133.663C241.434 137.926 239.888 143.694 240.242 150.475C238.138 131.091 241.43 105.457 250.561 78.8435C267.86 28.3915 299.568 -6.46353 321.341 1.00847Z" fill="#0085D0"/>
<path d="M306.188 143.982C307.62 144.795 309.077 145.648 310.525 146.53Z" fill="black"/>
<path d="M306.188 143.983C307.028 142.564 307.842 141.1 308.647 139.589C310.142 140.387 311.65 141.23 313.167 142.103C312.299 143.598 311.425 145.082 310.525 146.53C309.076 145.649 307.619 144.797 306.188 143.983Z" fill="black"/>
<path d="M345.483 165.129C334.81 155.93 323.835 148.195 313.167 142.104C312.299 143.599 311.425 145.083 310.525 146.531C317.402 150.759 324.391 155.843 331.22 161.727C361.666 187.961 377.141 219.905 365.826 233.034C354.483 246.192 320.621 235.554 290.178 209.332C280.954 201.381 273.126 192.916 266.988 184.611C261.049 176.589 256.692 168.713 254.226 161.603C253.849 160.561 253.518 159.463 253.217 158.324C252.907 157.192 252.632 156.075 252.428 154.993C250.976 147.61 250.774 138.62 251.842 128.688C251.842 128.688 251.839 128.696 251.836 128.696C252.049 126.504 252.231 124.802 252.231 124.802L240.224 126.479C238.672 135.925 240.474 153.352 240.474 153.352L240.622 153.139C241.025 156.005 241.511 158.774 242.16 161.308C243.112 164.625 244.381 168.085 245.985 171.652C253.937 189.452 269.72 209.923 291.031 228.294C331.422 263.125 376.374 277.222 391.411 259.776C406.441 242.33 385.879 199.955 345.483 165.129Z" fill="#00459B"/>
<path d="M212.38 126.929C160.617 139.815 123.171 168.384 128.736 190.734C134.297 213.081 180.775 220.742 232.539 207.849C284.307 194.963 321.741 166.376 316.155 144.051C310.605 121.704 264.124 114.029 212.38 126.929ZM241.838 191.315C202.829 201.004 167.817 195.24 163.612 178.385C159.422 161.56 187.632 140.032 226.637 130.317C265.639 120.613 300.663 126.373 304.861 143.214C309.05 160.05 280.824 181.569 241.838 191.315Z" fill="#00B6ED"/>
<path d="M240.582 121.737C240.582 121.737 239.92 126.813 239.865 129.02C239.865 129.02 251.507 126.207 252.114 126.151C252.114 126.151 252.555 122.454 252.942 120.744L240.582 121.737Z" fill="#00459B"/>
</svg>
