<svg width="663" height="118" viewBox="0 0 663 118" fill="none" xmlns="http://www.w3.org/2000/svg">
<path d="M142.311 81.7554L163.243 34.3594H170.626L191.235 81.7554H183.15L177.402 68.6244H155.045L149.255 81.7554H142.311ZM157.261 63.5974H175.197L166.256 43.1894L157.261 63.5974Z" fill="#231815"/>
<path d="M194.885 80.8548V74.1938C199.131 75.9498 202.237 77.0048 204.195 77.3678C206.154 77.7328 207.967 77.9118 209.641 77.9118C212.669 77.9118 215.065 77.1678 216.818 75.6848C218.571 74.2018 219.449 72.4268 219.449 70.3588C219.449 68.7978 218.99 67.3538 218.076 66.0318C217.133 64.7338 214.816 63.1418 211.121 61.2648L207.471 59.3718C202.606 56.8948 199.34 54.6348 197.67 52.5778C196.002 50.5328 195.168 48.2608 195.168 45.7618C195.168 43.5198 195.829 41.4118 197.154 39.4538C198.479 37.4938 200.254 35.9498 202.486 34.8378C204.719 33.7328 207.529 33.1758 210.913 33.1758C214.99 33.1758 219.295 33.7828 223.831 34.9958V41.1498C219.887 39.7638 217.181 38.9208 215.71 38.6368C214.241 38.3488 212.78 38.2018 211.325 38.2018C208.263 38.2018 206 38.9208 204.528 40.3508C203.059 41.7798 202.324 43.2398 202.324 44.7378C202.324 45.7608 202.671 46.8028 203.369 47.8558C204.066 48.9178 204.999 49.8158 206.174 50.5798C207.35 51.3378 208.962 52.2358 211.01 53.2828L214.804 55.2078C219.715 57.7058 222.992 59.9868 224.639 62.0568C226.283 64.1528 227.111 66.5508 227.111 69.2628C227.111 72.9608 225.539 76.1598 222.404 78.8678C219.268 81.5808 214.65 82.9378 208.549 82.9378C206.663 82.9378 204.837 82.8288 203.073 82.5968C201.307 82.3808 198.581 81.7998 194.885 80.8548Z" fill="#231815"/>
<path d="M230.51 80.8548V74.1938C234.758 75.9498 237.86 77.0048 239.822 77.3678C241.779 77.7328 243.592 77.9118 245.264 77.9118C248.297 77.9118 250.69 77.1678 252.447 75.6848C254.201 74.2028 255.078 72.4268 255.078 70.3588C255.078 68.7978 254.619 67.3538 253.702 66.0318C252.762 64.7338 250.439 63.1418 246.746 61.2648L243.099 59.3718C238.234 56.8948 234.97 54.6348 233.298 52.5778C231.631 50.5328 230.796 48.2608 230.796 45.7618C230.796 43.5198 231.459 41.4118 232.778 39.4538C234.106 37.4938 235.881 35.9498 238.113 34.8378C240.343 33.7328 243.153 33.1758 246.538 33.1758C250.62 33.1758 254.927 33.7828 259.46 34.9958V41.1498C255.514 39.7638 252.808 38.9208 251.34 38.6368C249.869 38.3488 248.408 38.2018 246.945 38.2018C243.89 38.2018 241.622 38.9208 240.152 40.3508C238.686 41.7798 237.952 43.2398 237.952 44.7378C237.952 45.7608 238.301 46.8028 238.993 47.8558C239.689 48.9178 240.627 49.8158 241.8 50.5798C242.972 51.3378 244.587 52.2358 246.641 53.2828L250.431 55.2078C255.34 57.7058 258.621 59.9868 260.264 62.0568C261.907 64.1528 262.732 66.5508 262.732 69.2628C262.732 72.9608 261.166 76.1598 258.028 78.8678C254.893 81.5808 250.273 82.9378 244.172 82.9378C242.289 82.9378 240.464 82.8288 238.702 82.5968C236.936 82.3808 234.206 81.7998 230.51 80.8548Z" fill="#231815"/>
<path d="M267.883 81.7554V34.3594H297.402V39.3884H275.36V54.5994H293.836V59.5634H275.36V76.7244H298.93V81.7544H267.883V81.7554Z" fill="#231815"/>
<path d="M314.8 81.7553V39.3893H296.102V34.3604H340.97V39.3893H322.277V81.7553H314.8Z" fill="#231815"/>
<path d="M456.105 82.9407C451.121 82.9407 446.781 81.9377 443.091 79.9287C439.399 77.9217 436.537 74.9907 434.51 71.1387C432.481 67.2897 431.463 62.9227 431.463 58.0537C431.463 53.3647 432.431 49.0868 434.365 45.2368C436.304 41.3828 439.153 38.4068 442.93 36.3148C446.708 34.2198 451.096 33.1768 456.104 33.1768C461.116 33.1768 465.504 34.2188 469.279 36.3148C473.056 38.4068 475.905 41.3828 477.84 45.2368C479.778 49.0868 480.74 53.3647 480.74 58.0537C480.74 62.7347 479.786 66.9867 477.878 70.8197C475.968 74.6497 473.141 77.6317 469.405 79.7567C465.666 81.8737 461.232 82.9407 456.105 82.9407ZM456.105 77.9107C461.42 77.9107 465.532 76.1297 468.44 72.5627C471.35 69.0007 472.802 64.1428 472.802 57.9958C472.802 51.8688 471.336 47.0357 468.409 43.5027C465.473 39.9717 461.374 38.2037 456.104 38.2037C450.833 38.2037 446.736 39.9717 443.8 43.5027C440.869 47.0357 439.404 51.8688 439.404 57.9958C439.404 64.1428 440.857 69.0007 443.768 72.5627C446.675 76.1297 450.784 77.9107 456.105 77.9107Z" fill="#231815"/>
<path d="M476.135 91.6813V85.7224C478.981 86.5584 481.523 86.9743 483.755 86.9743C485.275 86.9743 486.581 86.7224 487.668 86.2194C488.763 85.7154 489.646 84.8893 490.323 83.7203C491 82.5633 491.34 80.3563 491.34 77.1083V34.3604H498.816V76.8853C498.816 82.3283 497.398 86.2684 494.562 88.7054C491.727 91.1404 487.716 92.3564 482.544 92.3564C480.883 92.3574 478.745 92.1293 476.135 91.6813Z" fill="#008BD5"/>
<path d="M509.485 81.7554V34.3594H539.002V39.3884H516.962V54.5994H535.437V59.5634H516.962V76.7244H540.53V81.7544H509.485V81.7554Z" fill="#231815"/>
<path d="M569.134 38.6756C566.197 38.6756 563.449 39.0925 560.896 39.9315C558.343 40.7675 556.124 42.0086 554.242 43.6696C552.361 45.3276 550.881 47.3886 549.793 49.8446C548.705 52.3016 548.163 55.1626 548.163 58.4396C548.163 61.6746 548.666 64.4936 549.673 66.8836C550.681 69.2666 552.11 71.2455 553.965 72.8105C555.814 74.3795 558.048 75.5366 560.655 76.2896C563.261 77.0366 566.17 77.4196 569.375 77.4196C570.246 77.4196 571.175 77.3746 572.153 77.2946C573.132 77.2106 574.117 77.0906 575.111 76.9396C576.101 76.7916 577.069 76.6156 578.009 76.4116C578.95 76.2126 579.789 75.9986 580.531 75.7596V80.8416C578.988 81.3826 577.195 81.7986 575.158 82.0886C573.118 82.3936 571.023 82.5326 568.881 82.5326C564.509 82.5326 560.639 81.9866 557.267 80.8936C553.891 79.7956 551.059 78.2265 548.77 76.1815C546.484 74.1285 544.749 71.6376 543.578 68.6866C542.397 65.7306 541.807 62.3855 541.807 58.6425C541.807 54.9755 542.431 51.6005 543.674 48.5175C544.917 45.4385 546.707 42.7905 549.048 40.5826C551.387 38.3726 554.228 36.6436 557.56 35.4106C560.896 34.1796 564.64 33.5605 568.804 33.5605C569.897 33.5605 570.984 33.5986 572.059 33.6796C573.127 33.7626 574.157 33.8856 575.137 34.0386C576.117 34.1866 577.027 34.3726 577.866 34.5806C578.698 34.7936 579.419 35.0166 580.021 35.2496V40.3316C578.43 39.8656 576.695 39.4656 574.819 39.1516C572.938 38.8356 571.042 38.6756 569.134 38.6756Z" fill="#231815"/>
<path d="M602.949 81.7553V39.3893H584.256V34.3604H629.118V39.3893H610.427V81.7553H602.949Z" fill="#231815"/>
<path d="M630.703 80.8548V74.1938C634.954 75.9498 638.057 77.0048 640.018 77.3678C641.974 77.7328 643.785 77.9118 645.46 77.9118C648.49 77.9118 650.885 77.1678 652.641 75.6848C654.397 74.2018 655.272 72.4268 655.272 70.3588C655.272 68.7978 654.812 67.3538 653.897 66.0318C652.956 64.7338 650.639 63.1418 646.945 61.2648L643.294 59.3718C638.428 56.8948 635.163 54.6348 633.495 52.5778C631.826 50.5328 630.988 48.2608 630.988 45.7618C630.988 43.5198 631.651 41.4118 632.976 39.4538C634.301 37.4938 636.077 35.9498 638.306 34.8378C640.535 33.7328 643.346 33.1758 646.732 33.1758C650.813 33.1758 655.12 33.7828 659.652 34.9958V41.1498C655.713 39.7638 653.005 38.9208 651.534 38.6368C650.064 38.3488 648.601 38.2018 647.141 38.2018C644.086 38.2018 641.819 38.9208 640.353 40.3508C638.881 41.7798 638.147 43.2398 638.147 44.7378C638.147 45.7608 638.493 46.8028 639.188 47.8558C639.888 48.9178 640.821 49.8158 641.991 50.5798C643.173 51.3378 644.783 52.2358 646.833 53.2828L650.625 55.2078C655.538 57.7058 658.814 59.9868 660.463 62.0568C662.107 64.1528 662.929 66.5508 662.929 69.2628C662.929 72.9608 661.361 76.1598 658.224 78.8678C655.095 81.5808 650.469 82.9378 644.367 82.9378C642.483 82.9378 640.664 82.8288 638.898 82.5968C637.131 82.3808 634.399 81.7998 630.703 80.8548Z" fill="#231815"/>
<path d="M386.735 39.8394C385.57 37.9794 383.902 36.6044 381.731 35.7104C379.552 34.8094 375.961 34.3604 370.961 34.3604H356.899V81.7563H364.303V73.3094V62.9233V57.8323V48.5844V39.3904H368.724C372.4 39.3904 374.967 39.7394 376.433 40.4344C377.894 41.1274 378.957 42.0343 379.617 43.1513C380.28 44.2763 380.611 45.6384 380.611 47.2664C380.611 50.2534 379.569 52.7663 377.492 54.7893C375.467 56.7673 372.14 57.7784 367.544 57.8224V62.9233C371.631 62.9233 375.375 62.2614 378.769 60.9384C382.167 59.6144 384.636 57.7413 386.173 55.3033C387.712 52.8713 388.482 50.0303 388.482 46.7893C388.482 44.0123 387.901 41.6944 386.735 39.8394Z" fill="#231815"/>
<path d="M415.991 59.5623C418.53 58.6233 420.535 57.4723 422.009 56.1093C423.476 54.7403 424.611 53.1784 425.403 51.4254C426.202 49.6814 426.597 47.9043 426.597 46.1163C426.597 43.0383 425.472 40.3123 423.217 37.9313C420.959 35.5523 416.876 34.3604 410.966 34.3604H395.018V81.7563H402.421V70.6624V61.7123V56.6873V45.9353V39.3914H407.122C410.493 39.3914 412.944 39.7034 414.476 40.3174C416.004 40.9394 417.133 41.7943 417.859 42.8983C418.58 43.9963 418.942 45.2814 418.942 46.7574C418.942 49.2274 417.975 51.5083 416.045 53.5753C414.606 55.1143 411.351 56.2364 407.664 56.6794V59.5334L409.404 61.7144L424.408 81.7584H433.596L415.991 59.5623Z" fill="#231815"/>
<path d="M54.8516 69.458C54.9806 69.93 55.1256 70.408 55.2946 70.896C55.1296 70.441 54.9826 69.959 54.8516 69.458Z" fill="black"/>
<path d="M49.1582 66.0146C49.3442 67.7186 49.6282 69.3096 49.9992 70.7686C49.5272 69.0916 49.2332 67.4946 49.1582 66.0146Z" fill="black"/>
<path d="M79.1689 61.2402C78.8159 61.9022 78.4578 62.5432 78.0898 63.1652Z" fill="black"/>
<path d="M50 70.7686C50.417 72.2236 50.975 73.7425 51.678 75.3065C50.99 73.9825 50.437 72.4636 50 70.7686Z" fill="black"/>
<path d="M54.5049 67.9971C54.6079 68.4991 54.7259 68.9911 54.8509 69.4581C54.7149 68.9611 54.5929 68.4711 54.5049 67.9971Z" fill="black"/>
<path d="M84.7371 0.44242C94.2961 3.72742 95.8831 24.3294 88.2911 46.4594C86.2901 52.3104 83.8411 57.6614 81.1511 62.3434C80.4851 61.9584 79.8241 61.5904 79.1691 61.2404C80.8361 58.1194 82.3641 54.6474 83.6481 50.9074C89.3671 34.2284 88.1681 18.7024 80.9711 16.2344C73.7611 13.7664 63.2891 25.2794 57.5651 41.9584C55.8311 47.0074 54.7371 51.9514 54.2491 56.4574C53.0881 56.9894 52.0941 57.7114 51.2921 58.6404C49.6821 60.5094 49.0041 63.0404 49.1591 66.0154C48.2361 57.5124 49.6801 46.2664 53.6861 34.5914C61.2761 12.4554 75.1851 -2.83558 84.7371 0.44242Z" fill="#0085D0"/>
<path d="M78.0898 63.166C78.7168 63.523 79.3569 63.898 79.9919 64.285Z" fill="black"/>
<path d="M78.0898 63.1662C78.4578 62.5442 78.8159 61.9022 79.1689 61.2412C79.8239 61.5902 80.4848 61.9592 81.1508 62.3442C80.7688 62.9992 80.3869 63.6492 79.9919 64.2852C79.3569 63.8982 78.7168 63.5232 78.0898 63.1662Z" fill="black"/>
<path d="M95.3289 72.4439C90.6479 68.4079 85.8319 65.015 81.1519 62.343C80.7699 62.998 80.3879 63.6479 79.9929 64.2839C83.0109 66.1379 86.0769 68.369 89.0719 70.952C102.429 82.46 109.218 96.4729 104.255 102.233C99.2789 108.006 84.4229 103.339 71.0669 91.835C67.0209 88.348 63.5859 84.635 60.8929 80.99C58.2879 77.471 56.3759 74.0139 55.2949 70.8959C55.1289 70.4399 54.9829 69.9579 54.8519 69.4579C54.7169 68.9609 54.5949 68.4709 54.5059 67.9969C53.8689 64.7589 53.7809 60.813 54.2489 56.456C54.2489 56.456 54.2469 56.459 54.2449 56.459C54.3389 55.499 54.4189 54.752 54.4189 54.752L49.1509 55.4879C48.4709 59.6319 49.2619 67.2769 49.2619 67.2769L49.3269 67.183C49.5029 68.439 49.7169 69.6549 50.0009 70.7669C50.4179 72.2219 50.9759 73.741 51.6789 75.305C55.1659 83.115 62.0909 92.0939 71.4399 100.155C89.1609 115.436 108.881 121.621 115.479 113.967C122.072 106.313 113.052 87.7209 95.3289 72.4439Z" fill="#00459B"/>
<path d="M36.9355 55.6856C14.2265 61.3386 -2.20146 73.8716 0.240544 83.6776C2.67954 93.4816 23.0715 96.8436 45.7805 91.1866C68.4915 85.5336 84.9145 72.9916 82.4635 63.1966C80.0275 53.3936 59.6365 50.0256 36.9355 55.6856ZM49.8585 83.9326C32.7455 88.1836 17.3845 85.6556 15.5405 78.2606C13.7025 70.8796 26.0795 61.4346 43.1905 57.1726C60.3015 52.9146 75.6676 55.4427 77.5086 62.8307C79.3466 70.2157 66.9625 79.6556 49.8585 83.9326Z" fill="#00B6ED"/>
<path d="M49.3091 53.4077C49.3091 53.4077 49.0181 55.6357 48.9941 56.6027C48.9941 56.6027 54.1011 55.3687 54.3681 55.3447C54.3681 55.3447 54.5621 53.7217 54.7311 52.9727L49.3091 53.4077Z" fill="#00459B"/>
</svg>
