<svg width="403" height="402" viewBox="0 0 403 402" fill="none" xmlns="http://www.w3.org/2000/svg">
<path d="M187.738 237.731C188.18 239.343 188.677 240.983 189.255 242.655C188.688 241.091 188.191 239.442 187.738 237.731Z" fill="black"/>
<path d="M168.256 225.944C168.89 231.773 169.863 237.225 171.134 242.215C169.517 236.477 168.512 231.015 168.256 225.944Z" fill="black"/>
<path d="M270.97 209.602C269.763 211.869 268.538 214.068 267.279 216.198Z" fill="black"/>
<path d="M171.134 242.215C172.563 247.195 174.469 252.391 176.877 257.746C174.521 253.213 172.631 248.018 171.134 242.215Z" fill="black"/>
<path d="M186.554 232.731C186.906 234.452 187.31 236.131 187.738 237.731C187.274 236.033 186.86 234.355 186.554 232.731Z" fill="black"/>
<path d="M290.029 1.51463C322.746 12.7586 328.181 83.2686 302.197 159.014C295.347 179.037 286.964 197.357 277.759 213.378C275.479 212.065 273.216 210.801 270.971 209.603C276.681 198.926 281.913 187.04 286.3 174.239C305.874 117.152 301.775 64.0126 277.137 55.5686C252.457 47.1206 216.617 86.5266 197.028 143.614C191.091 160.893 187.347 177.813 185.674 193.234C181.703 195.053 178.301 197.526 175.557 200.703C170.045 207.103 167.725 215.764 168.256 225.946C165.097 196.84 170.04 158.35 183.751 118.387C209.725 42.6296 257.337 -9.70637 290.029 1.51463Z" fill="#0085D0"/>
<path d="M267.279 216.197C269.427 217.419 271.616 218.699 273.791 220.024Z" fill="black"/>
<path d="M267.279 216.198C268.539 214.068 269.763 211.869 270.97 209.602C273.215 210.8 275.478 212.064 277.758 213.377C276.453 215.62 275.141 217.849 273.79 220.024C271.616 218.7 269.427 217.419 267.279 216.198Z" fill="black"/>
<path d="M326.281 247.949C310.256 234.137 293.775 222.521 277.759 213.377C276.454 215.62 275.142 217.849 273.791 220.024C284.116 226.373 294.612 234.006 304.865 242.84C350.584 282.235 373.818 330.199 356.83 349.911C339.797 369.671 288.953 353.697 243.238 314.324C229.388 302.384 217.634 289.676 208.417 277.203C199.5 265.157 192.955 253.33 189.255 242.654C188.688 241.091 188.191 239.441 187.738 237.73C187.274 236.032 186.86 234.354 186.554 232.73C184.374 221.644 184.071 208.145 185.674 193.231C185.674 193.231 185.67 193.243 185.664 193.243C185.984 189.952 186.257 187.396 186.257 187.396L168.227 189.915C165.896 204.099 168.603 230.266 168.603 230.266L168.825 229.946C169.43 234.249 170.16 238.407 171.134 242.214C172.563 247.194 174.469 252.39 176.877 257.745C188.817 284.473 212.516 315.212 244.516 342.797C305.167 395.099 372.665 416.265 395.244 390.069C417.814 363.871 386.94 300.242 326.281 247.949Z" fill="#00459B"/>
<path d="M126.419 190.591C48.6941 209.94 -7.53392 252.837 0.823082 286.398C9.17408 319.955 78.9621 331.459 156.689 312.098C234.421 292.748 290.63 249.824 282.243 216.301C273.909 182.747 204.116 171.221 126.419 190.591ZM170.651 287.271C112.077 301.821 59.5031 293.165 53.1911 267.857C46.8991 242.592 89.2591 210.267 147.827 195.679C206.391 181.108 258.983 189.757 265.285 215.044C271.575 240.326 229.192 272.637 170.651 287.271Z" fill="#00B6ED"/>
<path d="M168.768 182.796C168.768 182.796 167.774 190.418 167.692 193.731C167.692 193.731 185.172 189.506 186.084 189.423C186.084 189.423 186.748 183.872 187.327 181.305L168.768 182.796Z" fill="#00459B"/>
</svg>
